<?xml version="1.0" encoding="UTF-8" standalone="no"?>
<svg
   xmlns:dc="http://purl.org/dc/elements/1.1/"
   xmlns:cc="http://creativecommons.org/ns#"
   xmlns:rdf="http://www.w3.org/1999/02/22-rdf-syntax-ns#"
   xmlns:svg="http://www.w3.org/2000/svg"
   xmlns="http://www.w3.org/2000/svg"
   xmlns:sodipodi="http://sodipodi.sourceforge.net/DTD/sodipodi-0.dtd"
   xmlns:inkscape="http://www.inkscape.org/namespaces/inkscape"
   width="101"
   height="101"
   viewBox="0 0 26.722916 26.722917"
   version="1.1"
   id="svg1102"
   inkscape:version="1.0.1 (3bc2e813f5, 2020-09-07)"
   sodipodi:docname="appcues_logo.svg">
  <defs
     id="defs1096" />
  <sodipodi:namedview
     id="base"
     pagecolor="#ffffff"
     bordercolor="#666666"
     borderopacity="1.0"
     inkscape:pageopacity="0.0"
     inkscape:pageshadow="2"
     inkscape:zoom="2.7703311"
     inkscape:cx="116.98393"
     inkscape:cy="77.027332"
     inkscape:document-units="px"
     inkscape:current-layer="layer1"
     inkscape:document-rotation="0"
     showgrid="false"
     units="px"
     inkscape:window-width="1267"
     inkscape:window-height="967"
     inkscape:window-x="182"
     inkscape:window-y="74"
     inkscape:window-maximized="0" />
  <metadata
     id="metadata1099">
    <rdf:RDF>
      <cc:Work
         rdf:about="">
        <dc:format>image/svg+xml</dc:format>
        <dc:type
           rdf:resource="http://purl.org/dc/dcmitype/StillImage" />
        <dc:title></dc:title>
      </cc:Work>
    </rdf:RDF>
  </metadata>
  <g
     inkscape:label="Layer 1"
     inkscape:groupmode="layer"
     id="layer1">
    <path
       id="path1079"
       style="opacity:0.9865;fill:#5d5cff;fill-opacity:1;stroke-width:0.659861"
       d="M 13.347273,0.13229372 A 13.229214,13.229134 0 0 0 0.13229325,13.361455 13.229214,13.229134 0 0 0 13.361533,26.590625 13.229214,13.229134 0 0 0 26.590623,13.361455 13.229214,13.229134 0 0 0 13.361533,0.13229372 a 13.229214,13.229134 0 0 0 -0.0143,0 z m 4.66026,4.65760198 c 0.21819,0.0122 0.51654,0.179899 0.51654,0.531407 V 19.970305 c 0,1.016563 -2.44685,0.690866 -2.54841,0.417467 l -3.1e-4,-6.08e-4 c -0.0437,-0.035 -0.084,-0.0801 -0.11906,-0.138439 l -4.3682,-6.86774 c -0.073,-0.114689 -0.12191,-0.239478 -0.13238,-0.360728 l -0.0203,-0.0198 0.0185,-0.0127 c -0.003,-0.123979 0.0354,-0.242938 0.13424,-0.341817 l 6.09267,-7.7015853 c 0.10021,-0.100209 0.23043,-0.150899 0.3612,-0.152399 0.0208,-0.002 0.0426,-0.003 0.0656,-0.002 z M 9.4032132,15.666311 c 0.29349,0.0112 0.5989998,0.181819 0.5989998,0.562247 v 3.739417 c 0,0.289289 -0.2328198,0.522267 -0.5221098,0.522267 h -2.98138 c -0.51584,0 -0.52227,-0.428417 -0.52227,-0.758516 3.14894,-3.970155 2e-5,-0.0551 3.14896,-4.025275 0.0834,-0.0298 0.17997,-0.0439 0.2778,-0.0401 z" />
  </g>
</svg>
