<?xml version="1.0" encoding="UTF-8" standalone="no"?>
<svg
   xmlns:dc="http://purl.org/dc/elements/1.1/"
   xmlns:cc="http://creativecommons.org/ns#"
   xmlns:rdf="http://www.w3.org/1999/02/22-rdf-syntax-ns#"
   xmlns:svg="http://www.w3.org/2000/svg"
   xmlns="http://www.w3.org/2000/svg"
   xmlns:sodipodi="http://sodipodi.sourceforge.net/DTD/sodipodi-0.dtd"
   xmlns:inkscape="http://www.inkscape.org/namespaces/inkscape"
   width="75"
   height="75"
   viewBox="0 0 19.8435 19.8435"
   version="1.1"
   id="svg1134"
   inkscape:version="1.0.1 (3bc2e813f5, 2020-09-07)"
   sodipodi:docname="appcues_logo.svg">
  <defs
     id="defs1128" />
  <sodipodi:namedview
     id="base"
     pagecolor="#ffffff"
     bordercolor="#666666"
     borderopacity="1.0"
     inkscape:pageopacity="0.0"
     inkscape:pageshadow="2"
     inkscape:zoom="7.0897985"
     inkscape:cx="40.751821"
     inkscape:cy="47.227726"
     inkscape:document-units="px"
     inkscape:current-layer="layer1"
     inkscape:document-rotation="0"
     showgrid="false"
     units="px"
     inkscape:window-width="1920"
     inkscape:window-height="1057"
     inkscape:window-x="-8"
     inkscape:window-y="-8"
     inkscape:window-maximized="1" />
  <metadata
     id="metadata1131">
    <rdf:RDF>
      <cc:Work
         rdf:about="">
        <dc:format>image/svg+xml</dc:format>
        <dc:type
           rdf:resource="http://purl.org/dc/dcmitype/StillImage" />
        <dc:title />
      </cc:Work>
    </rdf:RDF>
  </metadata>
  <g
     inkscape:label="Layer 1"
     inkscape:groupmode="layer"
     id="layer1">
    <g
       id="g1725">
      <path
         id="path1079"
         style="opacity:0.9865;fill:#5d5cff;fill-opacity:1;stroke-width:0.494891"
         d="M 9.9111126,-5.4896136e-5 A 9.9217856,9.9217856 0 0 0 6.1159067e-7,9.92175 9.9217856,9.9217856 0 0 0 9.9218085,19.843565 9.9217856,9.9217856 0 0 0 19.8435,9.92175 9.9217856,9.9217856 0 0 0 9.9218085,-5.4896136e-5 a 9.9217856,9.9217856 0 0 0 -0.01069,0 z M 13.406266,3.4931211 c 0.163636,0.009 0.387395,0.1349283 0.387395,0.3985549 v 10.986681 c 0,0.762411 -1.835113,0.518144 -1.911279,0.313097 l -2.31e-4,-4.5e-4 c -0.03277,-0.0263 -0.06301,-0.0601 -0.08929,-0.103829 L 8.5167512,9.9363998 C 8.4620419,9.8504009 8.4253124,9.7567921 8.4174625,9.6658532 l -0.01523,-0.0148 0.01384,-0.01 c -0.0025,-0.092999 0.02652,-0.1821977 0.1006847,-0.2563567 L 13.086198,3.6085496 c 0.07516,-0.075199 0.17282,-0.1131786 0.270896,-0.1142986 0.01559,-9.999e-4 0.03192,-0.002 0.04918,-9.999e-4 z M 6.9531019,11.650378 c 0.2201163,0.008 0.4492474,0.136368 0.4492474,0.421685 v 2.804545 c 0,0.216967 -0.1746138,0.391695 -0.3915791,0.391695 H 4.7747644 c -0.3868761,0 -0.3916961,-0.321306 -0.3916961,-0.568883 2.3616713,-2.977593 1.6e-5,-0.0413 2.3616873,-3.018932 0.062529,-0.0223 0.1349743,-0.0329 0.2083463,-0.0301 z"
         inkscape:export-filename="C:\Users\pecur\OneDrive\Desktop\layoutit\img\appcues_logo.png"
         inkscape:export-xdpi="144"
         inkscape:export-ydpi="144" />
      <g
         id="g1718"
         transform="matrix(1.2499999,0,0,1.2499999,-18.176661,3.0100343e-5)">
        <circle
           style="opacity:0.9865;fill:#ff0000;fill-opacity:1;stroke-width:1.63755"
           id="path1077"
           cx="28.299492"
           cy="2.116616"
           r="2.1166401" />
      </g>
    </g>
  </g>
</svg>
